<svg xmlns="http://www.w3.org/2000/svg" viewBox="0 0 1024 1024">
  <defs>
    <linearGradient id="bg" x1="168" y1="112" x2="856" y2="912" gradientUnits="userSpaceOnUse">
      <stop offset="0" stop-color="#c9b9ff"/>
      <stop offset="0.52" stop-color="#a997e5"/>
      <stop offset="1" stop-color="#7e68cf"/>
    </linearGradient>
    <linearGradient id="line" x1="255" y1="190" x2="775" y2="800" gradientUnits="userSpaceOnUse">
      <stop offset="0" stop-color="#4a3f68"/>
      <stop offset="1" stop-color="#241d34"/>
    </linearGradient>
    <filter id="shadow" x="120" y="110" width="784" height="820" color-interpolation-filters="sRGB" filterUnits="userSpaceOnUse">
      <feDropShadow dx="0" dy="36" stdDeviation="30" flood-color="#3f3559" flood-opacity="0.22"/>
    </filter>
  </defs>
  <rect width="1024" height="1024" rx="232" fill="url(#bg)"/>
  <circle cx="260" cy="258" r="72" fill="#fff7ed" opacity="0.14"/>
  <circle cx="790" cy="800" r="106" fill="#fff7ed" opacity="0.12"/>
  <g filter="url(#shadow)">
    <path fill="#fff7ed" d="M296 402 338 222l135 124h78l135-124 42 180c63 56 92 133 81 224-24 151-143 238-297 238S239 777 215 626c-11-91 18-168 81-224Z"/>
    <path fill="none" stroke="url(#line)" stroke-width="48" stroke-linecap="round" stroke-linejoin="round" d="M296 402 338 222l135 124h78l135-124 42 180"/>
    <path fill="none" stroke="url(#line)" stroke-width="44" stroke-linecap="round" d="M224 548c0-178 120-304 288-304s288 126 288 304"/>
    <rect x="178" y="522" width="82" height="172" rx="36" fill="#d8ccff" stroke="url(#line)" stroke-width="34"/>
    <rect x="764" y="522" width="82" height="172" rx="36" fill="#d8ccff" stroke="url(#line)" stroke-width="34"/>
    <path fill="none" stroke="url(#line)" stroke-width="42" stroke-linecap="round" d="M414 574h196"/>
    <path fill="none" stroke="url(#line)" stroke-width="36" stroke-linecap="round" d="M444 670h136"/>
  </g>
</svg>
